<svg xmlns="http://www.w3.org/2000/svg" width="13.242" height="13" viewBox="0 0 13.242 13">
  <path id="Icon_simple-microsoftexcel" data-name="Icon simple-microsoftexcel" d="M13,1.919H8.559V2.74H9.867v1.3H8.559v.414H9.867v1.3H8.559v.425H9.867v1.23H8.559V7.9H9.867V9.134H8.559v.493H9.867v1.24H8.559v.9H13c.07-.021.129-.1.175-.247a1.21,1.21,0,0,0,.071-.351v-9.1c0-.071-.024-.113-.071-.128A.607.607,0,0,0,13,1.919Zm-.575,8.946H10.292V9.626H12.42v1.24Zm0-1.731H10.292V7.9H12.42Zm0-1.726H10.292V6.184H12.42V7.409Zm0-1.655H10.292v-1.3H12.42v1.3h0Zm0-1.721H10.292V2.741H12.42V4.032ZM0,1.714V11.977l7.813,1.351v-13L0,1.719ZM4.631,9.478q-.045-.121-.418-1.028c-.248-.6-.4-.957-.441-1.057H3.758L2.92,9.387,1.8,9.312,3.128,6.829,1.912,4.346l1.142-.06.755,1.943h.015L4.676,4.2l1.18-.074L4.451,6.81,5.9,9.551,4.631,9.477Z" transform="translate(0 -0.328)" fill="#284ad5"/>
</svg>
